<?xml version="1.0" encoding="UTF-8"?>
<svg width="20px" height="20px" viewBox="0 0 20 20" version="1.1" xmlns="http://www.w3.org/2000/svg" xmlns:xlink="http://www.w3.org/1999/xlink">
    <title>instagram</title>
    <g id="Panorama" stroke="none" stroke-width="1" fill="none" fill-rule="evenodd">
        <g id="Logo" transform="translate(-1769.000000, -2099.000000)" fill="#FFFFFF" fill-rule="nonzero">
            <g id="instagram" transform="translate(1769.000000, 2099.000000)">
                <path d="M15.34,3.46 L15.34,3.46 C14.8546453,3.46 14.4170818,3.75237061 14.2313446,4.20077988 C14.0456074,4.64918915 14.1482743,5.16533054 14.4914719,5.50852814 C14.8346695,5.85172573 15.3508109,5.95439264 15.7992201,5.76865544 C16.2476294,5.58291824 16.54,5.14535469 16.54,4.66 C16.54,3.9972583 16.0027417,3.46 15.34,3.46 Z M19.94,5.88 C19.9205523,5.05029823 19.7651564,4.229403 19.48,3.45 C19.2257319,2.7831326 18.8299857,2.17927847 18.32,1.68 C17.8248224,1.1674259 17.2195602,0.774176485 16.55,0.53 C15.7726568,0.236160805 14.9508476,0.0772100523 14.12,0.06 C13.06,0 12.72,0 10,0 C7.28,0 6.94,0 5.88,0.06 C5.0491524,0.0772100523 4.22734319,0.236160805 3.45,0.53 C2.78167657,0.776648568 2.17693385,1.16956051 1.68,1.68 C1.1674259,2.17517762 0.774176485,2.78043975 0.53,3.45 C0.236160805,4.22734319 0.0772100523,5.0491524 0.06,5.88 C0,6.94 0,7.28 0,10 C0,12.72 0,13.06 0.06,14.12 C0.0772100523,14.9508476 0.236160805,15.7726568 0.53,16.55 C0.774176485,17.2195602 1.1674259,17.8248224 1.68,18.32 C2.17693385,18.8304395 2.78167657,19.2233514 3.45,19.47 C4.22734319,19.7638392 5.0491524,19.9227899 5.88,19.94 C6.94,20 7.28,20 10,20 C12.72,20 13.06,20 14.12,19.94 C14.9508476,19.9227899 15.7726568,19.7638392 16.55,19.47 C17.2195602,19.2258235 17.8248224,18.8325741 18.32,18.32 C18.8322421,17.8225804 19.2283368,17.2181945 19.48,16.55 C19.7651564,15.770597 19.9205523,14.9497018 19.94,14.12 C19.94,13.06 20,12.72 20,10 C20,7.28 20,6.94 19.94,5.88 Z M18.14,14 C18.1327193,14.6347712 18.0177534,15.2637024 17.8,15.86 C17.6403339,16.2951936 17.3838794,16.6884238 17.05,17.01 C16.7256473,17.3405064 16.3332263,17.5964331 15.9,17.76 C15.3037024,17.9777534 14.6747712,18.0927193 14.04,18.1 C13.04,18.15 12.67,18.16 10.04,18.16 C7.41,18.16 7.04,18.16 6.04,18.1 C5.38089075,18.112341 4.72459487,18.010852 4.1,17.8 C3.68578174,17.6280775 3.31135593,17.3727872 3,17.05 C2.66808857,16.7287484 2.41484306,16.3351912 2.26,15.9 C2.01585619,15.2951524 1.88044356,14.6519424 1.86,14 C1.86,13 1.8,12.63 1.8,10 C1.8,7.37 1.8,7 1.86,6 C1.86448241,5.35105548 1.98295008,4.70794524 2.21,4.1 C2.38604705,3.67791115 2.65626495,3.30165837 3,3 C3.30381341,2.65616823 3.67928781,2.38309594 4.1,2.2 C4.70955109,1.98004373 5.35199731,1.86507967 6,1.86 C7,1.86 7.37,1.8 10,1.8 C12.63,1.8 13,1.8 14,1.86 C14.6347712,1.86728068 15.2637024,1.9822466 15.86,2.2 C16.3144297,2.36865248 16.7222936,2.6428467 17.05,3 C17.377702,3.30717838 17.6337617,3.68273272 17.8,4.1 C18.022253,4.70893369 18.1372887,5.3517799 18.14,6 C18.19,7 18.2,7.37 18.2,10 C18.2,12.63 18.19,13 18.14,14 Z M10,4.86996084 C7.16808754,4.87552031 4.87632591,7.17473823 4.87999991,10.0066537 C4.88368274,12.8385691 7.1814096,15.1318257 10.0133268,15.1299903 C12.8452441,15.1281527 15.1400099,12.8319178 15.1400099,10 C15.1426727,8.63688711 14.6016759,7.32897993 13.6368696,6.36605069 C12.6720634,5.40312146 11.3631051,4.86467271 10,4.86996084 Z M10,13.33 C8.16089178,13.33 6.67,11.8391082 6.67,10 C6.67,8.16089178 8.16089178,6.67 10,6.67 C11.8391082,6.67 13.33,8.16089178 13.33,10 C13.33,10.8831709 12.9791617,11.7301694 12.3546656,12.3546656 C11.7301694,12.9791617 10.8831709,13.33 10,13.33 Z" id="Shape"></path>
            </g>
        </g>
    </g>
</svg>